<?xml version="1.0" encoding="utf-8"?>
<!-- Generator: Adobe Illustrator 24.0.3, SVG Export Plug-In . SVG Version: 6.00 Build 0)  -->
<svg version="1.1" xmlns="http://www.w3.org/2000/svg" xmlns:xlink="http://www.w3.org/1999/xlink" x="0px" y="0px"
	 viewBox="0 0 360 360" style="enable-background:new 0 0 360 360;" xml:space="preserve">
<style type="text/css">
	.st0{display:none;}
	.st1{display:inline;fill:#303030;stroke:#000000;stroke-miterlimit:10;}
	.st2{fill:#FFFFFF;}
	.st3{fill:#57C5C9;}
</style>
<g id="Layer_2" class="st0">
	<rect class="st1" width="360" height="360"/>
</g>
<g id="Layer_1">
	<g>
		<path class="st2" d="M150.6,239.6"/>
		<g id="spaceshipLogo">
			<path class="st3" d="M210.7,228.9c-6-0.8-12.8-1.3-20.1-1.3c-7.4,0-14.4,0.5-20.5,1.4c-13.4,1.9-22.5,5.6-22.5,9.9h85.9
				C233.6,234.5,224.4,230.8,210.7,228.9z"/>
			<g>
				<circle class="st3" cx="150.7" cy="240.5" r="0.8"/>
				<circle class="st3" cx="167.3" cy="240.5" r="0.8"/>
				<circle class="st3" cx="183.8" cy="240.5" r="0.8"/>
				<circle class="st3" cx="200.4" cy="240.5" r="0.8"/>
				<circle class="st3" cx="216.9" cy="240.5" r="0.8"/>
				<circle class="st3" cx="233.4" cy="240.5" r="0.8"/>
			</g>
			<path class="st3" d="M190.5,207.5c-11.1,0-20,8.8-20.3,19.8c0.3,0,0.6-0.1,0.9-0.1c0.3-2,0.9-5.2,2.9-8.7
				c2.2-3.8,4.9-6.1,6.5-7.3c-1.4,1.5-3.7,4.5-4.9,8.9c-0.7,2.6-0.8,4.9-0.7,6.6c4.9-0.5,10.2-0.8,15.8-0.8c7.2,0,14.1,0.5,20.1,1.3
				C210.5,216.3,201.5,207.5,190.5,207.5z"/>
			<g>
				<path class="st3" d="M192,242.2l-0.7,10.8h9.6c1.1-1.6,2.2-3.5,3.2-5.9c0.7-1.8,1.2-3.4,1.6-4.9H192z"/>
				<path class="st3" d="M201.7,253h1c0.7-0.1,1.4-0.1,2-0.2c4.7-2,9.9-4.3,12.6-6c2.4-1.5,4.5-3.1,6.4-4.6h-15.5
					c-0.6,1.7-1.4,3.7-2.7,5.8C204.2,250.1,202.9,251.8,201.7,253z"/>
				<path class="st3" d="M177.8,247.1c1,2.4,2.1,4.3,3.2,5.9h9.7l-0.7-10.8h-13.4h-0.3C176.6,243.7,177.1,245.4,177.8,247.1z"/>
				<path class="st3" d="M226.6,242.2c-2.2,1.8-4.9,3.7-8.2,5.4c-2.7,1.4-7.2,3.3-11.6,5c1.4-0.1,2.7-0.3,4-0.5
					c13.6-1.9,22.9-5.6,22.9-9.9L226.6,242.2L226.6,242.2z"/>
				<path class="st3" d="M163.6,247.7c-3.3-1.8-6-3.7-8.2-5.4h-7.7c0,4.3,9.1,8,22.5,9.9c1.7,0.2,3.4,0.4,5.3,0.6
					C171,251.1,166.3,249.1,163.6,247.7z"/>
				<path class="st3" d="M164.6,246.9c2.7,1.7,8,4.1,12.7,6.1c0.4,0,0.9,0.1,1.3,0.1h1.5c-1.2-1.3-2.5-2.9-3.8-5
					c-1.2-2.1-2.1-4.1-2.7-5.8h-15.4C160.1,243.8,162.2,245.4,164.6,246.9z"/>
			</g>
			<path class="st3" d="M216.8,294.2l-14.3-38.9c-0.1-0.4-0.6-0.6-1.2-0.6h-7.4H187h-7.4c-0.6,0-1.1,0.2-1.2,0.6l-14.3,38.9
				c-0.2,0.5,0.4,0.9,1.2,0.9H187h6.8h21.7C216.4,295.1,217,294.7,216.8,294.2z M187.3,270.9c0.8,0,1.5,0.7,1.5,1.5
				c0,0.2,0,0.4-0.1,0.6c0,0,0.1,0,0.1,0l1.4-0.4l0.7-1.3c0.2-0.4,0.7-0.5,1.1-0.3c0.4,0.2,0.6,0.8,0.3,1.2l-0.9,1.5
				c-0.1,0.1-0.2,0.3-0.4,0.3c-0.1,0-0.1,0.1-0.2,0.1l-1,0.3l2.6,1.7c0,0,0,0,0.1,0l1.7,0.3c0.1,0,0.2,0,0.2,0.1
				c0.2,0,0.3,0.1,0.4,0.3l1.1,1.4c0.3,0.4,0.2,0.9-0.2,1.2c-0.4,0.3-0.9,0.2-1.2-0.2l-0.9-1.2l-0.2,0l0.3,0.7c0,0.1,0,0.2,0.1,0.2
				c0,0.2,0,0.3,0,0.5l-0.6,1.6c-0.2,0.5-0.7,0.7-1.1,0.5c-0.4-0.2-0.6-0.7-0.5-1.1l0.5-1.4l-0.6-1.4c0-0.1,0-0.1-0.1-0.2l-2.6-1.6
				l0,0.3l1,1.1c0.3,0.3,0.3,0.9-0.1,1.2c-0.4,0.3-0.9,0.3-1.2-0.1l-1.1-1.3c-0.1-0.1-0.2-0.3-0.2-0.5c0-0.1,0-0.2,0-0.3l0-1.7
				c0-0.3,0.1-0.5,0.3-0.6c-0.1,0-0.3,0.1-0.4,0.1c-0.8,0-1.5-0.7-1.5-1.5C185.8,271.6,186.4,270.9,187.3,270.9z M191,293.5
				c-10.2,0-18.5-0.5-18.5-1.1c0-0.6,8.3-1.1,18.5-1.1s18.5,0.5,18.5,1.1C209.5,293.1,201.2,293.5,191,293.5z"/>
		</g>
		<g>
			<path class="st3" d="M33.1,178H9.9V89.2c0-14.9,6.8-22.3,20.5-22.3h12.2c8,0,13.8,2.7,17.2,8.1c3.2-5.4,8.9-8.1,17.2-8.1h12.2
				c13.7,0,20.5,7.4,20.5,22.3V178H86.7V87.2c0-0.9-0.3-1.7-0.9-2.4c-0.6-0.7-1.3-1-2.2-1h-8.9c-0.9,0-1.6,0.3-2.2,1
				c-0.6,0.7-0.9,1.5-0.9,2.4V178H48.3V87.2c0-0.9-0.3-1.7-0.9-2.4c-0.6-0.7-1.3-1-2.2-1h-8.9c-0.9,0-1.6,0.3-2.2,1
				c-0.6,0.7-0.9,1.5-0.9,2.4C33.1,87.2,33.1,178,33.1,178z"/>
			<path class="st3" d="M148.9,158.4h25.6V178h-48.8V68.6h48.8v19.3h-25.6v25.7h24v18.6h-24V158.4z"/>
			<path class="st3" d="M210.9,178h-23.2V89.2c0-14.9,6.8-22.3,20.5-22.3h12.2c8.1,0,13.8,2.7,17.2,8.1c3.2-5.4,8.9-8.1,17.2-8.1
				h12.2c13.7,0,20.5,7.4,20.5,22.3V178h-23.2V87.2c0-0.9-0.3-1.7-0.9-2.4c-0.6-0.7-1.4-1-2.2-1h-8.9c-0.9,0-1.6,0.3-2.2,1
				c-0.6,0.7-0.9,1.5-0.9,2.4V178h-23.2V87.2c0-0.9-0.3-1.7-0.9-2.4s-1.4-1-2.2-1h-8.9c-0.9,0-1.6,0.3-2.2,1
				c-0.6,0.7-0.9,1.5-0.9,2.4L210.9,178L210.9,178z"/>
			<path class="st3" d="M326.8,158.4h25.6V178h-48.8V68.6h48.8v19.3h-25.6v25.7h24v18.6h-24V158.4z"/>
		</g>
		<g>
			<path class="st2" d="M27.3,293.5H8.7v-70c0-11.7,5.5-17.6,16.5-17.6h9.9c6.5,0,11.1,2.1,13.9,6.4c2.6-4.3,7.2-6.4,13.9-6.4h9.9
				c11,0,16.5,5.9,16.5,17.6v70H70.5v-71.6c0-0.7-0.2-1.3-0.7-1.9c-0.5-0.5-1.1-0.8-1.8-0.8h-7.2c-0.7,0-1.3,0.3-1.8,0.8
				c-0.5,0.5-0.7,1.1-0.7,1.9v71.6H39.6v-71.6c0-0.7-0.2-1.3-0.7-1.9c-0.5-0.5-1.1-0.8-1.8-0.8h-7.2c-0.7,0-1.3,0.3-1.8,0.8
				s-0.7,1.1-0.7,1.9L27.3,293.5L27.3,293.5z"/>
			<path class="st2" d="M120.7,278.1h20.7v15.5H102v-86.2h39.3v15.2h-20.7v20.3H140v14.7h-19.3V278.1z"/>
		</g>
		<g>
			<path class="st2" d="M274,208.9h18.7v70c0,11.7-5.5,17.6-16.5,17.6h-16.5c-11,0-16.5-5.9-16.5-17.6v-70h18.7v71.6
				c0,0.7,0.2,1.3,0.7,1.9c0.5,0.5,1.1,0.8,1.8,0.8h7.2c0.7,0,1.3-0.3,1.8-0.8s0.7-1.1,0.7-1.9L274,208.9L274,208.9z"/>
			<path class="st2" d="M339,208.9c11,0,16.5,5.9,16.5,17.6v17.2c0,11.7-5.5,17.6-16.5,17.6H324v33.9h-18.7v-86.2L339,208.9
				L339,208.9z M336.9,245.8v-21.5c0-0.7-0.2-1.3-0.7-1.9c-0.5-0.5-1.1-0.8-1.8-0.8H324v26.8h10.4c0.7,0,1.3-0.3,1.8-0.8
				C336.6,247.1,336.9,246.5,336.9,245.8z"/>
		</g>
	</g>
	<g>
		<path class="st3" d="M167.7,308.5c0.5,0.2,0.7,0.6,0.7,1.2v1.3c0,1-0.5,1.5-1.4,1.5h-2.9v-7.2h2.8c0.9,0,1.4,0.5,1.4,1.5v0.7
			C168.4,308,168.2,308.3,167.7,308.5z M166.6,306.3h-0.8v1.9h0.8c0.1,0,0.1,0,0.2-0.1c0,0,0.1-0.1,0.1-0.2v-1.5
			c0-0.1,0-0.1-0.1-0.2C166.7,306.3,166.7,306.3,166.6,306.3z M166.9,311.1v-1.6c0-0.1,0-0.1-0.1-0.2c0,0-0.1-0.1-0.2-0.1h-0.9v2.1
			h0.9c0.1,0,0.1,0,0.2-0.1C166.9,311.3,166.9,311.2,166.9,311.1z"/>
		<path class="st3" d="M171.1,311.1h1.7v1.3h-3.3v-7.2h3.3v1.3h-1.7v1.7h1.6v1.2h-1.6V311.1z"/>
		<path class="st3" d="M173.3,306.6v-1.3h3.9v1.3H176v5.9h-1.6v-5.9H173.3z"/>
		<path class="st3" d="M180.8,305.1c0.9,0,1.4,0.5,1.4,1.5v5.8h-1.6V310h-1.1v2.4h-1.6v-5.8c0-1,0.5-1.5,1.4-1.5H180.8z
			 M179.5,308.8h1.1v-2.4c0-0.1,0-0.1-0.1-0.2c0,0-0.1-0.1-0.2-0.1h-0.7c-0.1,0-0.1,0-0.2,0.1c0,0-0.1,0.1-0.1,0.2V308.8z"/>
		<path class="st3" d="M187.1,309.5v2.9h-1.6v-7.2h2.8c0.9,0,1.4,0.5,1.4,1.5v0.8c0,0.6-0.2,1-0.6,1.1c0.4,0.1,0.6,0.4,0.6,0.9v2.8
			h-1.6v-2.7c0-0.1-0.1-0.2-0.2-0.2H187.1z M187.1,306.3v2.1h0.8c0.1,0,0.1,0,0.2-0.1c0,0,0.1-0.1,0.1-0.2v-1.7c0-0.1,0-0.1-0.1-0.2
			c0,0-0.1-0.1-0.2-0.1H187.1z"/>
		<path class="st3" d="M192.3,311.1h1.7v1.3h-3.3v-7.2h3.3v1.3h-1.7v1.7h1.6v1.2h-1.6V311.1z"/>
		<path class="st3" d="M196.5,311.1h1.7v1.3h-3.3v-7.2h1.6V311.1z"/>
		<path class="st3" d="M200.5,311.1h1.7v1.3h-3.3v-7.2h3.3v1.3h-1.7v1.7h1.6v1.2h-1.6V311.1z"/>
		<path class="st3" d="M205.9,305.1c0.9,0,1.4,0.5,1.4,1.5v5.8h-1.6V310h-1.1v2.4h-1.6v-5.8c0-1,0.5-1.5,1.4-1.5H205.9z
			 M204.6,308.8h1.1v-2.4c0-0.1,0-0.1-0.1-0.2s-0.1-0.1-0.2-0.1h-0.7c-0.1,0-0.1,0-0.2,0.1s-0.1,0.1-0.1,0.2V308.8z"/>
		<path class="st3" d="M212.5,307.1H211v-0.6c0-0.1,0-0.1-0.1-0.2c0,0-0.1-0.1-0.2-0.1h-0.6c-0.1,0-0.1,0-0.2,0.1
			c0,0-0.1,0.1-0.1,0.2v1.3c0,0.1,0,0.1,0.1,0.2s0.1,0.1,0.2,0.1h1c0.9,0,1.4,0.5,1.4,1.5v1.5c0,1-0.5,1.5-1.4,1.5h-1.3
			c-0.9,0-1.4-0.5-1.4-1.5v-0.7h1.5v0.8c0,0.1,0,0.1,0.1,0.2c0,0,0.1,0.1,0.2,0.1h0.7c0.1,0,0.1,0,0.2-0.1c0,0,0.1-0.1,0.1-0.2v-1.4
			c0-0.1,0-0.1-0.1-0.2c0,0-0.1-0.1-0.2-0.1h-1c-0.9,0-1.4-0.5-1.4-1.5v-1.4c0-1,0.5-1.5,1.4-1.5h1.2c0.9,0,1.4,0.5,1.4,1.5V307.1z"
			/>
		<path class="st3" d="M215.1,311.1h1.7v1.3h-3.3v-7.2h3.3v1.3h-1.7v1.7h1.6v1.2h-1.6V311.1z"/>
	</g>
</g>
</svg>
