<?xml version="1.0" encoding="utf-8"?>
<!-- Generator: Adobe Illustrator 24.0.3, SVG Export Plug-In . SVG Version: 6.00 Build 0)  -->
<svg version="1.1" id="Layer_1" xmlns="http://www.w3.org/2000/svg" xmlns:xlink="http://www.w3.org/1999/xlink" x="0px" y="0px"
	 viewBox="0 0 360 360" style="enable-background:new 0 0 360 360;" xml:space="preserve">
<style type="text/css">
	.st0{fill:#FFFFFF;}
	.st1{fill:#57C5C9;}
</style>
<g>
	<path class="st0" d="M150.61,239.56"/>
	<g>
		<path class="st1" d="M210.74,228.89c-5.99-0.83-12.82-1.3-20.07-1.3c-7.41,0-14.39,0.49-20.47,1.36c-13.4,1.9-22.5,5.62-22.5,9.89
			h85.95C233.65,234.52,224.36,230.78,210.74,228.89z"/>
		<g>
			<circle class="st1" cx="150.71" cy="240.54" r="0.8"/>
			<circle class="st1" cx="167.26" cy="240.54" r="0.8"/>
			<circle class="st1" cx="183.81" cy="240.54" r="0.8"/>
			<circle class="st1" cx="200.35" cy="240.54" r="0.8"/>
			<circle class="st1" cx="216.9" cy="240.54" r="0.8"/>
			<circle class="st1" cx="233.45" cy="240.54" r="0.8"/>
		</g>
		<path class="st1" d="M190.47,207.46c-11.05,0-20.03,8.84-20.27,19.83c0.3-0.04,0.61-0.08,0.92-0.12c0.26-2.02,0.93-5.23,2.88-8.66
			c2.16-3.8,4.89-6.12,6.53-7.32c-1.37,1.49-3.72,4.48-4.92,8.92c-0.7,2.58-0.79,4.87-0.7,6.6c4.88-0.5,10.2-0.78,15.76-0.78
			c7.25,0,14.08,0.47,20.07,1.3C210.47,216.27,201.5,207.46,190.47,207.46z"/>
		<g>
			<path class="st1" d="M191.97,242.25l-0.71,10.79h9.62c1.07-1.57,2.19-3.52,3.16-5.9c0.71-1.75,1.21-3.42,1.56-4.89H191.97z"/>
			<path class="st1" d="M201.66,253.04h1.04c0.69-0.05,1.37-0.11,2.04-0.17c4.71-1.96,9.86-4.31,12.55-6
				c2.43-1.52,4.54-3.11,6.35-4.62h-15.5c-0.59,1.7-1.45,3.72-2.71,5.82C204.2,250.13,202.89,251.76,201.66,253.04z"/>
			<path class="st1" d="M177.81,247.14c0.96,2.38,2.08,4.34,3.16,5.9h9.72l-0.71-10.79H176.6h-0.34
				C176.61,243.72,177.1,245.39,177.81,247.14z"/>
			<path class="st1" d="M226.56,242.25c-2.21,1.76-4.94,3.66-8.2,5.42c-2.66,1.43-7.23,3.34-11.65,5.01
				c1.38-0.14,2.73-0.31,4.04-0.49c13.62-1.89,22.91-5.63,22.91-9.95H226.56z"/>
			<path class="st1" d="M163.59,247.67c-3.27-1.76-5.99-3.66-8.2-5.42h-7.69c0,4.27,9.1,7.99,22.5,9.89
				c1.69,0.24,3.45,0.45,5.27,0.63C170.98,251.08,166.3,249.13,163.59,247.67z"/>
			<path class="st1" d="M164.65,246.87c2.72,1.71,7.96,4.09,12.71,6.07c0.42,0.04,0.85,0.07,1.28,0.1h1.54
				c-1.23-1.28-2.54-2.92-3.77-4.97c-1.25-2.1-2.11-4.12-2.71-5.82h-15.4C160.11,243.77,162.22,245.35,164.65,246.87z"/>
		</g>
		<path class="st1" d="M216.83,294.2l-14.3-38.95c-0.13-0.35-0.63-0.6-1.21-0.6h-7.44h-6.83h-7.44c-0.58,0-1.08,0.25-1.21,0.6
			l-14.3,38.95c-0.18,0.48,0.42,0.93,1.21,0.93h21.74h6.83h21.74C216.42,295.13,217.01,294.67,216.83,294.2z M187.29,270.93
			c0.84,0,1.52,0.68,1.52,1.52c0,0.21-0.04,0.41-0.12,0.59c0.03-0.01,0.05-0.03,0.08-0.03l1.45-0.44l0.73-1.27
			c0.23-0.4,0.73-0.54,1.14-0.32c0.42,0.23,0.56,0.76,0.32,1.17l-0.88,1.49c-0.09,0.15-0.22,0.27-0.37,0.34
			c-0.07,0.05-0.14,0.09-0.23,0.12l-0.99,0.32l2.56,1.66c0.02,0,0.04,0,0.06,0l1.71,0.31c0.09,0.02,0.17,0.05,0.24,0.09
			c0.16,0.05,0.3,0.15,0.41,0.29l1.07,1.36c0.3,0.37,0.22,0.92-0.16,1.2c-0.37,0.27-0.89,0.2-1.17-0.17l-0.89-1.17l-0.24-0.04
			l0.28,0.73c0.03,0.08,0.04,0.17,0.05,0.25c0.04,0.16,0.03,0.33-0.04,0.5l-0.62,1.61c-0.17,0.45-0.67,0.66-1.11,0.48
			c-0.42-0.18-0.63-0.66-0.46-1.09l0.54-1.36l-0.56-1.41c-0.03-0.07-0.04-0.14-0.05-0.21l-2.55-1.65l-0.01,0.33l0.97,1.1
			c0.3,0.34,0.28,0.87-0.06,1.18c-0.35,0.32-0.9,0.29-1.21-0.07l-1.12-1.31c-0.12-0.13-0.18-0.29-0.2-0.46
			c-0.02-0.08-0.04-0.17-0.04-0.26l0.03-1.74c0-0.27,0.13-0.5,0.33-0.65c-0.13,0.04-0.27,0.07-0.42,0.07
			c-0.84,0-1.52-0.68-1.52-1.52C185.77,271.61,186.45,270.93,187.29,270.93z M190.97,293.53c-10.24,0-18.54-0.48-18.54-1.06
			c0-0.59,8.3-1.06,18.54-1.06c10.24,0,18.54,0.48,18.54,1.06C209.52,293.06,201.22,293.53,190.97,293.53z"/>
	</g>
	<g>
		<path class="st1" d="M33.07,178.02H9.9V89.24c0-14.88,6.84-22.32,20.52-22.32h12.24c8.05,0,13.79,2.71,17.21,8.12
			c3.2-5.41,8.94-8.12,17.21-8.12h12.24c13.68,0,20.52,7.44,20.52,22.32v88.77H86.68v-90.8c0-0.9-0.31-1.69-0.91-2.37
			c-0.61-0.68-1.35-1.01-2.23-1.01H74.6c-0.88,0-1.63,0.34-2.23,1.01c-0.61,0.68-0.91,1.47-0.91,2.37v90.8H48.29v-90.8
			c0-0.9-0.31-1.69-0.91-2.37c-0.61-0.68-1.35-1.01-2.23-1.01h-8.94c-0.88,0-1.63,0.34-2.23,1.01c-0.61,0.68-0.91,1.47-0.91,2.37
			V178.02z"/>
		<path class="st1" d="M148.89,158.4h25.65v19.61h-48.81V68.61h48.81v19.28h-25.65v25.7h23.99v18.6h-23.99V158.4z"/>
		<path class="st1" d="M210.94,178.02h-23.17V89.24c0-14.88,6.84-22.32,20.52-22.32h12.25c8.05,0,13.79,2.71,17.21,8.12
			c3.2-5.41,8.93-8.12,17.21-8.12h12.24c13.68,0,20.52,7.44,20.52,22.32v88.77h-23.17v-90.8c0-0.9-0.3-1.69-0.91-2.37
			c-0.61-0.68-1.35-1.01-2.23-1.01h-8.93c-0.88,0-1.63,0.34-2.23,1.01c-0.61,0.68-0.91,1.47-0.91,2.37v90.8h-23.17v-90.8
			c0-0.9-0.3-1.69-0.91-2.37c-0.61-0.68-1.35-1.01-2.23-1.01h-8.93c-0.88,0-1.63,0.34-2.23,1.01c-0.61,0.68-0.91,1.47-0.91,2.37
			V178.02z"/>
		<path class="st1" d="M326.76,158.4h25.65v19.61H303.6V68.61h48.81v19.28h-25.65v25.7h23.99v18.6h-23.99V158.4z"/>
	</g>
	<g>
		<path class="st0" d="M27.34,293.52H8.68v-69.98c0-11.73,5.51-17.6,16.53-17.6h9.86c6.49,0,11.11,2.13,13.86,6.4
			c2.58-4.27,7.2-6.4,13.86-6.4h9.86c11.02,0,16.53,5.87,16.53,17.6v69.98H70.54v-71.58c0-0.71-0.25-1.33-0.73-1.87
			c-0.49-0.54-1.09-0.8-1.8-0.8h-7.2c-0.71,0-1.31,0.27-1.8,0.8c-0.49,0.53-0.73,1.15-0.73,1.87v71.58H39.61v-71.58
			c0-0.71-0.25-1.33-0.73-1.87c-0.49-0.54-1.09-0.8-1.8-0.8h-7.2c-0.71,0-1.31,0.27-1.8,0.8c-0.49,0.53-0.73,1.15-0.73,1.87V293.52z
			"/>
		<path class="st0" d="M120.66,278.06h20.66v15.46h-39.32v-86.25h39.32v15.2h-20.66v20.26h19.33v14.66h-19.33V278.06z"/>
	</g>
	<g>
		<path class="st0" d="M273.96,208.86h18.66v69.98c0,11.73-5.51,17.6-16.53,17.6h-16.53c-11.02,0-16.53-5.87-16.53-17.6v-69.98
			h18.66v71.58c0,0.71,0.24,1.33,0.73,1.87c0.49,0.53,1.09,0.8,1.8,0.8h7.2c0.71,0,1.31-0.27,1.8-0.8c0.49-0.53,0.73-1.15,0.73-1.87
			V208.86z"/>
		<path class="st0" d="M339.01,208.86c11.02,0,16.53,5.87,16.53,17.6v17.2c0,11.73-5.51,17.6-16.53,17.6h-15.06v33.86h-18.66v-86.25
			H339.01z M336.88,245.78v-21.46c0-0.71-0.25-1.33-0.73-1.87c-0.49-0.53-1.09-0.8-1.8-0.8h-10.4v26.79h10.4
			c0.71,0,1.31-0.27,1.8-0.8C336.63,247.11,336.88,246.49,336.88,245.78z"/>
	</g>
</g>
</svg>
