<svg xmlns="http://www.w3.org/2000/svg" viewBox="0 0 292.14 322.04"><defs><style>.cls-1{fill:none;stroke:#9d9c9e;stroke-linecap:round;stroke-miterlimit:10;stroke-width:4px;stroke-dasharray:11.98 11.98;}.cls-2{fill:#9d9c9e;}</style></defs><title>uploadArrow</title><g id="Layer_3" data-name="Layer 3"><rect class="cls-1" x="2" y="2" width="288.14" height="318.04" rx="8.09"/><path class="cls-2" d="M214.49,106.17a258.08,258.08,0,0,0-35-2.27,255.44,255.44,0,0,0-35.72,2.38c-23.39,3.31-39.27,9.8-39.27,17.25h150C254.47,116,238.26,109.47,214.49,106.17Z" transform="translate(-33.93 -18.98)"/><circle class="cls-2" cx="75.81" cy="107.52" r="1.4"/><circle class="cls-2" cx="104.69" cy="107.52" r="1.4"/><circle class="cls-2" cx="133.57" cy="107.52" r="1.4"/><circle class="cls-2" cx="162.43" cy="107.52" r="1.4"/><circle class="cls-2" cx="191.31" cy="107.52" r="1.4"/><circle class="cls-2" cx="220.19" cy="107.52" r="1.4"/><path class="cls-2" d="M179.12,68.77a35.39,35.39,0,0,0-35.37,34.61l1.6-.21a40.92,40.92,0,0,1,16.42-27.89,37.58,37.58,0,0,0-8.58,15.57A36.6,36.6,0,0,0,152,102.37a269.4,269.4,0,0,1,27.5-1.36,259.8,259.8,0,0,1,35,2.26A35.39,35.39,0,0,0,179.12,68.77Z" transform="translate(-33.93 -18.98)"/><path class="cls-2" d="M181.74,129.48l-1.24,18.83h16.78A54.93,54.93,0,0,0,202.8,138a59.2,59.2,0,0,0,2.72-8.54Z" transform="translate(-33.93 -18.98)"/><path class="cls-2" d="M198.65,148.31h1.81c1.2-.08,2.39-.19,3.56-.29,8.22-3.42,17.21-7.52,21.9-10.47A101,101,0,0,0,237,129.48H210a54.25,54.25,0,0,1-4.73,10.16A47.56,47.56,0,0,1,198.65,148.31Z" transform="translate(-33.93 -18.98)"/><path class="cls-2" d="M157,138a52.67,52.67,0,0,0,5.51,10.29h17l-1.24-18.83H154.32A59.07,59.07,0,0,0,157,138Z" transform="translate(-33.93 -18.98)"/><path class="cls-2" d="M242.1,129.48a96.17,96.17,0,0,1-14.31,9.46,195.37,195.37,0,0,1-20.33,8.75c2.41-.25,4.76-.55,7-.86,23.77-3.3,40-9.82,40-17.36H242.1Z" transform="translate(-33.93 -18.98)"/><path class="cls-2" d="M132.21,138.94a95.64,95.64,0,0,1-14.31-9.46H104.48c0,7.46,15.88,14,39.27,17.26,2.95.42,6,.79,9.19,1.1A196.5,196.5,0,0,1,132.21,138.94Z" transform="translate(-33.93 -18.98)"/><path class="cls-2" d="M134.06,137.55c4.75,3,13.89,7.13,22.18,10.59.73.07,1.48.12,2.23.17h2.69a48.74,48.74,0,0,1-6.58-8.67,56.93,56.93,0,0,1-4.73-10.16H123A98.4,98.4,0,0,0,134.06,137.55Z" transform="translate(-33.93 -18.98)"/><path class="cls-2" d="M225.12,220.14l-25-68a2.2,2.2,0,0,0-2.11-1H160.17a2.2,2.2,0,0,0-2.11,1l-25,68c-.31.84.74,1.62,2.11,1.62H223C224.4,221.76,225.43,221,225.12,220.14Zm-65.05-37.07,19.36-16.76a.88.88,0,0,1,1.14,0l19.36,16.76a.87.87,0,0,1-.57,1.53H189.7a.87.87,0,0,0-.87.87v14.38a.87.87,0,0,1-.88.87h-15.9a.87.87,0,0,1-.88-.87V185.47a.87.87,0,0,0-.87-.87h-9.66A.87.87,0,0,1,160.07,183.07Zm41.65,28.16a.67.67,0,0,1-.67.66H159a.67.67,0,0,1-.67-.66v-4.09a.67.67,0,0,1,.67-.67h42.1a.67.67,0,0,1,.67.67Z" transform="translate(-33.93 -18.98)"/><path class="cls-2" d="M119.05,253.74h-4v11h-2.2v-11h-4V252h10.15Z" transform="translate(-33.93 -18.98)"/><path class="cls-2" d="M124.73,264.75a3.41,3.41,0,0,1-.25-.89,3.31,3.31,0,0,1-2.49,1.06,3.36,3.36,0,0,1-2.34-.81,2.65,2.65,0,0,1-.91-2,2.7,2.7,0,0,1,1.13-2.33,5.5,5.5,0,0,1,3.23-.81h1.31v-.63a1.48,1.48,0,0,0-1.67-1.62,1.89,1.89,0,0,0-1.19.36,1.14,1.14,0,0,0-.47.93H119a2.33,2.33,0,0,1,.52-1.46,3.35,3.35,0,0,1,1.41-1.07,4.87,4.87,0,0,1,2-.39,4,4,0,0,1,2.66.84,3,3,0,0,1,1,2.36v4.29a4.86,4.86,0,0,0,.36,2.05v.15Zm-2.35-1.54a2.35,2.35,0,0,0,1.19-.31,2,2,0,0,0,.84-.82v-1.8h-1.15a3.1,3.1,0,0,0-1.78.42,1.32,1.32,0,0,0-.6,1.16,1.25,1.25,0,0,0,.41,1A1.55,1.55,0,0,0,122.38,263.21Z" transform="translate(-33.93 -18.98)"/><path class="cls-2" d="M137.11,260.09a5.66,5.66,0,0,1-1,3.52,3.48,3.48,0,0,1-5.19.28v4.51h-2.14V255.24h2l.09,1a3.15,3.15,0,0,1,2.56-1.14,3.2,3.2,0,0,1,2.72,1.3,5.79,5.79,0,0,1,1,3.6ZM135,259.9a3.92,3.92,0,0,0-.57-2.25,1.84,1.84,0,0,0-1.62-.84,2,2,0,0,0-1.88,1.08v4.22a2,2,0,0,0,1.9,1.11,1.84,1.84,0,0,0,1.59-.82A4.41,4.41,0,0,0,135,259.9Z" transform="translate(-33.93 -18.98)"/><path class="cls-2" d="M145.51,256.27a3.35,3.35,0,0,1,2.64-1.21q3,0,3.09,3.47v6.22H149.1v-6.14a1.89,1.89,0,0,0-.42-1.39,1.78,1.78,0,0,0-1.26-.41,2.05,2.05,0,0,0-1.91,1.14v6.8h-2.14v-13.5h2.14Z" transform="translate(-33.93 -18.98)"/><path class="cls-2" d="M157.58,264.92a4.39,4.39,0,0,1-3.29-1.28,4.62,4.62,0,0,1-1.26-3.4V260a5.67,5.67,0,0,1,.55-2.54,4.15,4.15,0,0,1,1.54-1.74,4,4,0,0,1,2.22-.63,3.73,3.73,0,0,1,3,1.24,5.29,5.29,0,0,1,1.06,3.51v.86h-6.22a2.87,2.87,0,0,0,.79,1.86,2.36,2.36,0,0,0,1.74.69A2.9,2.9,0,0,0,160.1,262l1.15,1.1a3.78,3.78,0,0,1-1.53,1.32A4.67,4.67,0,0,1,157.58,264.92Zm-.25-8.14a1.79,1.79,0,0,0-1.42.61,3.19,3.19,0,0,0-.69,1.71h4.07V259a2.61,2.61,0,0,0-.57-1.62A1.79,1.79,0,0,0,157.33,256.78Z" transform="translate(-33.93 -18.98)"/><path class="cls-2" d="M168,257.19a4.94,4.94,0,0,0-.87-.07,2,2,0,0,0-2,1.12v6.51h-2.14v-9.51h2l0,1.06a2.41,2.41,0,0,1,2.15-1.24,2,2,0,0,1,.75.12Z" transform="translate(-33.93 -18.98)"/><path class="cls-2" d="M173.57,264.92a4.39,4.39,0,0,1-3.29-1.28,4.62,4.62,0,0,1-1.26-3.4V260a5.67,5.67,0,0,1,.55-2.54,4.08,4.08,0,0,1,1.54-1.74,4,4,0,0,1,2.21-.63,3.74,3.74,0,0,1,3,1.24,5.29,5.29,0,0,1,1.06,3.51v.86h-6.22a2.87,2.87,0,0,0,.79,1.86,2.35,2.35,0,0,0,1.73.69,2.89,2.89,0,0,0,2.39-1.19l1.16,1.1a3.85,3.85,0,0,1-1.53,1.32A4.67,4.67,0,0,1,173.57,264.92Zm-.25-8.14a1.79,1.79,0,0,0-1.42.61,3.19,3.19,0,0,0-.69,1.71h4.07V259a2.55,2.55,0,0,0-.58-1.62A1.75,1.75,0,0,0,173.32,256.78Z" transform="translate(-33.93 -18.98)"/><path class="cls-2" d="M186.2,252.93v2.31h1.68v1.58H186.2v5.31a1.17,1.17,0,0,0,.22.79,1,1,0,0,0,.76.24,3.2,3.2,0,0,0,.75-.09v1.65a5,5,0,0,1-1.4.2c-1.65,0-2.47-.9-2.47-2.71v-5.39H182.5v-1.58h1.56v-2.31Z" transform="translate(-33.93 -18.98)"/><path class="cls-2" d="M188.85,259.9a5.54,5.54,0,0,1,.55-2.51,4.1,4.1,0,0,1,1.56-1.73,4.36,4.36,0,0,1,2.3-.6,4.14,4.14,0,0,1,3.12,1.24,4.91,4.91,0,0,1,1.3,3.29v.5a5.64,5.64,0,0,1-.54,2.51,4,4,0,0,1-1.55,1.72,4.46,4.46,0,0,1-2.32.6,4.12,4.12,0,0,1-3.23-1.34,5.14,5.14,0,0,1-1.2-3.57Zm2.13.19a3.81,3.81,0,0,0,.61,2.3,2,2,0,0,0,1.69.83,1.93,1.93,0,0,0,1.68-.85,4.23,4.23,0,0,0,.6-2.47,3.78,3.78,0,0,0-.62-2.28,2,2,0,0,0-1.68-.84,1.94,1.94,0,0,0-1.66.83A4.14,4.14,0,0,0,191,260.09Z" transform="translate(-33.93 -18.98)"/><path class="cls-2" d="M209.31,262.16a1,1,0,0,0-.47-.87,5.07,5.07,0,0,0-1.56-.52,8.49,8.49,0,0,1-1.82-.58,2.44,2.44,0,0,1-1.6-2.25,2.52,2.52,0,0,1,1-2.05,4.13,4.13,0,0,1,2.64-.83,4.23,4.23,0,0,1,2.76.85,2.67,2.67,0,0,1,1.05,2.18H209.2a1.29,1.29,0,0,0-.46-1,1.74,1.74,0,0,0-1.21-.41,1.89,1.89,0,0,0-1.15.33,1,1,0,0,0-.44.87.87.87,0,0,0,.41.76,5.73,5.73,0,0,0,1.67.55,8,8,0,0,1,2,.66,2.77,2.77,0,0,1,1.06.92,2.36,2.36,0,0,1,.35,1.3,2.49,2.49,0,0,1-1.07,2.08,4.51,4.51,0,0,1-2.78.79,5,5,0,0,1-2.09-.42,3.48,3.48,0,0,1-1.42-1.16,2.73,2.73,0,0,1-.51-1.59h2.08a1.48,1.48,0,0,0,.57,1.17,2.21,2.21,0,0,0,1.39.4,2.14,2.14,0,0,0,1.29-.32A1,1,0,0,0,209.31,262.16Z" transform="translate(-33.93 -18.98)"/><path class="cls-2" d="M217.45,264.92a4.39,4.39,0,0,1-3.29-1.28,4.62,4.62,0,0,1-1.26-3.4V260a5.67,5.67,0,0,1,.55-2.54,4.15,4.15,0,0,1,1.54-1.74,4.07,4.07,0,0,1,2.22-.63,3.73,3.73,0,0,1,3,1.24,5.24,5.24,0,0,1,1.06,3.51v.86h-6.22a2.87,2.87,0,0,0,.79,1.86,2.36,2.36,0,0,0,1.74.69A2.9,2.9,0,0,0,220,262l1.15,1.1a3.78,3.78,0,0,1-1.53,1.32A4.65,4.65,0,0,1,217.45,264.92Zm-.25-8.14a1.79,1.79,0,0,0-1.42.61,3.19,3.19,0,0,0-.69,1.71h4.07V259a2.61,2.61,0,0,0-.57-1.62A1.79,1.79,0,0,0,217.2,256.78Z" transform="translate(-33.93 -18.98)"/><path class="cls-2" d="M225.2,264.75h-2.14v-13.5h2.14Z" transform="translate(-33.93 -18.98)"/><path class="cls-2" d="M231.71,264.92a4.39,4.39,0,0,1-3.29-1.28,4.62,4.62,0,0,1-1.26-3.4V260a5.67,5.67,0,0,1,.55-2.54,4.08,4.08,0,0,1,1.54-1.74,4,4,0,0,1,2.21-.63,3.74,3.74,0,0,1,3,1.24,5.29,5.29,0,0,1,1.05,3.51v.86h-6.21a2.87,2.87,0,0,0,.79,1.86,2.35,2.35,0,0,0,1.73.69,2.89,2.89,0,0,0,2.39-1.19l1.16,1.1a3.85,3.85,0,0,1-1.53,1.32A4.7,4.7,0,0,1,231.71,264.92Zm-.25-8.14a1.79,1.79,0,0,0-1.42.61,3.19,3.19,0,0,0-.69,1.71h4.07V259a2.55,2.55,0,0,0-.58-1.62A1.75,1.75,0,0,0,231.46,256.78Z" transform="translate(-33.93 -18.98)"/><path class="cls-2" d="M241.09,263.22a2,2,0,0,0,1.33-.47,1.61,1.61,0,0,0,.56-1.15h2a3.16,3.16,0,0,1-.55,1.66,3.62,3.62,0,0,1-1.41,1.21,4.18,4.18,0,0,1-1.92.45,4,4,0,0,1-3.16-1.29,5.12,5.12,0,0,1-1.17-3.57v-.22a5.05,5.05,0,0,1,1.16-3.47,4,4,0,0,1,3.17-1.31,3.89,3.89,0,0,1,2.76,1,3.54,3.54,0,0,1,1.12,2.6h-2a2,2,0,0,0-.56-1.35,1.79,1.79,0,0,0-1.33-.52,1.88,1.88,0,0,0-1.6.75,3.75,3.75,0,0,0-.57,2.28v.34a3.86,3.86,0,0,0,.56,2.31A1.88,1.88,0,0,0,241.09,263.22Z" transform="translate(-33.93 -18.98)"/><path class="cls-2" d="M249.28,252.93v2.31H251v1.58h-1.68v5.31a1.17,1.17,0,0,0,.22.79,1,1,0,0,0,.76.24,3.2,3.2,0,0,0,.75-.09v1.65a5.05,5.05,0,0,1-1.41.2c-1.64,0-2.46-.9-2.46-2.71v-5.39h-1.56v-1.58h1.56v-2.31Z" transform="translate(-33.93 -18.98)"/><path class="cls-2" d="M149.73,286.35a3.41,3.41,0,0,1-.25-.89,3.31,3.31,0,0,1-2.49,1.06,3.36,3.36,0,0,1-2.34-.81,2.64,2.64,0,0,1-.9-2,2.7,2.7,0,0,1,1.12-2.33,5.5,5.5,0,0,1,3.23-.81h1.31v-.63a1.48,1.48,0,0,0-1.67-1.62,1.89,1.89,0,0,0-1.19.36,1.14,1.14,0,0,0-.47.93H144a2.33,2.33,0,0,1,.52-1.46,3.35,3.35,0,0,1,1.41-1.07,4.87,4.87,0,0,1,2-.39,4,4,0,0,1,2.66.84,3,3,0,0,1,1,2.36v4.29a4.89,4.89,0,0,0,.36,2.05v.15Zm-2.35-1.54a2.35,2.35,0,0,0,1.19-.31,1.93,1.93,0,0,0,.84-.83v-1.79h-1.15a3.19,3.19,0,0,0-1.78.41,1.35,1.35,0,0,0-.6,1.17,1.25,1.25,0,0,0,.41,1A1.55,1.55,0,0,0,147.38,284.81Z" transform="translate(-33.93 -18.98)"/><path class="cls-2" d="M155.77,276.84l.06,1.1a3.42,3.42,0,0,1,2.77-1.28q3,0,3,3.4v6.29h-2.13v-6.16a2,2,0,0,0-.39-1.35,1.7,1.7,0,0,0-1.28-.43,2.06,2.06,0,0,0-1.93,1.17v6.77h-2.13v-9.51Z" transform="translate(-33.93 -18.98)"/><path class="cls-2" d="M168.28,274.37a1.12,1.12,0,0,1,1.21-1.15,1.16,1.16,0,0,1,.89.33,1.1,1.1,0,0,1,.32.82,1.06,1.06,0,0,1-.32.8,1.16,1.16,0,0,1-.89.32,1.14,1.14,0,0,1-.89-.32A1.09,1.09,0,0,1,168.28,274.37Zm2.27,12h-2.13v-9.51h2.13Z" transform="translate(-33.93 -18.98)"/><path class="cls-2" d="M174.88,276.84l.07,1a3.41,3.41,0,0,1,2.74-1.17,2.64,2.64,0,0,1,2.61,1.46,3.37,3.37,0,0,1,2.92-1.46,3,3,0,0,1,2.34.87,3.9,3.9,0,0,1,.79,2.57v6.25h-2.14v-6.19a1.87,1.87,0,0,0-.4-1.33,1.73,1.73,0,0,0-1.31-.42,1.79,1.79,0,0,0-1.19.39,2.06,2.06,0,0,0-.64,1v6.52h-2.14v-6.26a1.52,1.52,0,0,0-1.71-1.68,1.88,1.88,0,0,0-1.82,1v6.89h-2.14v-9.51Z" transform="translate(-33.93 -18.98)"/><path class="cls-2" d="M194.22,286.35a3.41,3.41,0,0,1-.25-.89,3.31,3.31,0,0,1-2.49,1.06,3.36,3.36,0,0,1-2.34-.81,2.64,2.64,0,0,1-.9-2,2.7,2.7,0,0,1,1.12-2.33,5.5,5.5,0,0,1,3.23-.81h1.31v-.63a1.48,1.48,0,0,0-1.67-1.62,1.89,1.89,0,0,0-1.19.36,1.14,1.14,0,0,0-.47.93h-2.13a2.33,2.33,0,0,1,.52-1.46,3.35,3.35,0,0,1,1.41-1.07,4.87,4.87,0,0,1,2-.39,4,4,0,0,1,2.66.84,3,3,0,0,1,1,2.36v4.29a4.89,4.89,0,0,0,.36,2.05v.15Zm-2.35-1.54a2.35,2.35,0,0,0,1.19-.31,1.93,1.93,0,0,0,.84-.83v-1.79h-1.15a3.19,3.19,0,0,0-1.78.41,1.35,1.35,0,0,0-.6,1.17,1.25,1.25,0,0,0,.41,1A1.55,1.55,0,0,0,191.87,284.81Z" transform="translate(-33.93 -18.98)"/><path class="cls-2" d="M197.9,281.52a5.6,5.6,0,0,1,1-3.54,3.36,3.36,0,0,1,2.77-1.32,3.15,3.15,0,0,1,2.56,1.13l.09-1h1.93v9.22a3.83,3.83,0,0,1-1.17,2.95,4.42,4.42,0,0,1-3.14,1.08,5,5,0,0,1-2-.43,3.63,3.63,0,0,1-1.52-1.14l1-1.29a3.07,3.07,0,0,0,2.43,1.17,2.37,2.37,0,0,0,1.68-.57,2.22,2.22,0,0,0,.61-1.69v-.65a3.12,3.12,0,0,1-2.46,1A3.35,3.35,0,0,1,199,285.2,5.8,5.8,0,0,1,197.9,281.52Zm2.13.19a3.83,3.83,0,0,0,.58,2.25,1.88,1.88,0,0,0,1.63.82,2,2,0,0,0,1.91-1.11v-4.18a2,2,0,0,0-1.9-1.08,1.89,1.89,0,0,0-1.64.84A4.26,4.26,0,0,0,200,281.71Z" transform="translate(-33.93 -18.98)"/><path class="cls-2" d="M212.67,286.52a4.39,4.39,0,0,1-3.29-1.28,4.62,4.62,0,0,1-1.26-3.4v-.27a5.64,5.64,0,0,1,.55-2.54,4.08,4.08,0,0,1,1.54-1.74,4,4,0,0,1,2.21-.63,3.7,3.7,0,0,1,3,1.24,5.24,5.24,0,0,1,1.06,3.51v.86h-6.21a2.85,2.85,0,0,0,.79,1.86,2.34,2.34,0,0,0,1.73.69,2.89,2.89,0,0,0,2.39-1.19l1.15,1.1a3.82,3.82,0,0,1-1.52,1.32A4.7,4.7,0,0,1,212.67,286.52Zm-.26-8.14A1.8,1.8,0,0,0,211,279a3.19,3.19,0,0,0-.69,1.71h4.07v-.15a2.54,2.54,0,0,0-.57-1.63A1.79,1.79,0,0,0,212.41,278.38Z" transform="translate(-33.93 -18.98)"/></g></svg>