<?xml version="1.0" encoding="utf-8"?>
<!-- Generator: Adobe Illustrator 24.0.3, SVG Export Plug-In . SVG Version: 6.00 Build 0)  -->
<svg version="1.1" xmlns="http://www.w3.org/2000/svg" xmlns:xlink="http://www.w3.org/1999/xlink" x="0px" y="0px"
	 viewBox="0 0 360 360" style="enable-background:new 0 0 360 360;" xml:space="preserve">
<style type="text/css">
	.st0{display:none;}
	.st1{display:inline;fill:#070909;stroke:#000000;stroke-miterlimit:10;}
	.st2{fill:#57C5C9;}
</style>
<g id="Layer_1" class="st0">
	<rect class="st1" width="360" height="360"/>
</g>
<g id="Layer_2">
	<g>
		<path class="st2" d="M35,1.24h15.02l9.08,60.27l6.78-60.27h16.47L69.63,81.3H50.37L42.5,32.17L34.63,81.3H15.38L2.66,1.24h16.47
			l6.78,60.27L35,1.24z"/>
		<path class="st2" d="M122.79,0c10.01,0,15.02,5.45,15.02,16.33V81.3h-16.95V54.45h-12.23V81.3H91.67V16.33
			c0-10.89,5-16.33,15.02-16.33H122.79z M108.62,41.08h12.23V14.23c0-0.66-0.22-1.24-0.67-1.73c-0.44-0.49-0.99-0.74-1.63-0.74
			h-7.63c-0.65,0-1.19,0.25-1.63,0.74c-0.44,0.5-0.67,1.07-0.67,1.73V41.08z"/>
		<path class="st2" d="M167.35,1.24V81.3h-16.95V1.24H167.35z"/>
		<path class="st2" d="M175.46,15.96V1.24h42.38v14.73h-12.71V81.3h-16.95V15.96H175.46z"/>
		<path class="st2" d="M242.54,1.24V81.3h-16.95V1.24H242.54z"/>
		<path class="st2" d="M300.06,81.3h-16.95V14.85c0-0.66-0.22-1.24-0.67-1.73c-0.45-0.5-0.99-0.74-1.63-0.74h-6.54
			c-0.65,0-1.19,0.25-1.63,0.74c-0.45,0.49-0.67,1.07-0.67,1.73V81.3h-16.95V16.33c0-10.89,5-16.33,15.02-16.33h15.02
			c10.01,0,15.02,5.45,15.02,16.33V81.3z"/>
		<path class="st2" d="M334.33,49.5V36.75h22.4v29.45c0,10.89-5.01,16.33-15.02,16.33h-15.26c-10.01,0-15.02-5.44-15.02-16.33V16.33
			c0-10.89,5-16.33,15.02-16.33h15.26c10.01,0,15.02,5.45,15.02,16.33v7.55h-16.11v-9.65c0-0.66-0.22-1.24-0.67-1.73
			c-0.45-0.49-0.99-0.74-1.63-0.74h-7.63c-0.65,0-1.19,0.25-1.63,0.74c-0.45,0.5-0.67,1.07-0.67,1.73v53.95
			c0,0.66,0.22,1.24,0.67,1.73c0.44,0.5,0.99,0.74,1.63,0.74h7.63c0.64,0,1.19-0.25,1.63-0.74c0.44-0.5,0.67-1.07,0.67-1.73V49.5
			H334.33z"/>
	</g>
	<g>
		<path class="st2" d="M38.46,249.3h23.08v88.46c0,14.83-6.82,22.24-20.44,22.24H21.97c-13.63,0-20.44-7.41-20.44-22.24v-13.65
			h21.93v16.34c0,0.9,0.3,1.68,0.91,2.36c0.6,0.67,1.34,1.01,2.23,1.01h8.74c0.88,0,1.62-0.34,2.23-1.01
			c0.6-0.67,0.91-1.46,0.91-2.36V249.3z"/>
		<path class="st2" d="M113.31,249.3h23.08v88.46c0,14.83-6.82,22.24-20.44,22.24H95.5c-13.63,0-20.44-7.41-20.44-22.24V249.3h23.08
			v90.48c0,0.9,0.3,1.69,0.91,2.36c0.6,0.67,1.34,1.01,2.23,1.01h8.9c0.88,0,1.62-0.34,2.23-1.01c0.6-0.67,0.91-1.46,0.91-2.36
			V249.3z"/>
		<path class="st2" d="M194.59,249.3c13.63,0,20.44,7.41,20.44,22.24v64.53c0,14.83-6.82,22.24-20.44,22.24h-42.37V249.3H194.59z
			 M191.95,338.77v-70.09c0-0.9-0.3-1.68-0.91-2.36c-0.61-0.67-1.35-1.01-2.23-1.01H175.3v76.83h13.52c0.88,0,1.62-0.34,2.23-1.01
			C191.65,340.46,191.95,339.67,191.95,338.77z"/>
		<path class="st2" d="M263.34,315.01v-17.35h30.5v40.1c0,14.83-6.82,22.24-20.44,22.24h-20.77c-13.63,0-20.44-7.41-20.44-22.24
			v-67.9c0-14.83,6.81-22.24,20.44-22.24h20.77c13.63,0,20.44,7.41,20.44,22.24v10.28h-21.93V267c0-0.9-0.3-1.69-0.91-2.36
			c-0.61-0.67-1.35-1.01-2.23-1.01H258.4c-0.88,0-1.62,0.34-2.23,1.01c-0.61,0.67-0.91,1.46-0.91,2.36v73.46
			c0,0.9,0.3,1.68,0.91,2.36c0.6,0.67,1.34,1.01,2.23,1.01h10.39c0.88,0,1.62-0.34,2.23-1.01c0.6-0.67,0.91-1.46,0.91-2.36v-25.44
			H263.34z"/>
		<path class="st2" d="M329.62,338.77h25.55v19.54h-48.64V249.3h48.64v19.21h-25.55v25.61h23.91v18.53h-23.91V338.77z"/>
	</g>
	<g>
		<path class="st2" d="M159.77,162.69c-1.03,0-1.8,0.24-2.31,0.72c-0.52,0.48-0.77,1.39-0.77,2.72v2.08h5.89v7.24h-5.89v27.73h-9.4
			v-37.62c0-6.31,2.9-9.46,8.7-9.46h6.59v6.59H159.77z"/>
		<path class="st2" d="M192.03,176.95v17.49c0,6.31-2.9,9.46-8.7,9.46h-7.92c-5.8,0-8.7-3.15-8.7-9.46v-17.49
			c0-6.31,2.9-9.46,8.7-9.46h7.92C189.13,167.5,192.03,170.65,192.03,176.95z M182.63,196.45v-21.57c0-0.38-0.13-0.72-0.39-1
			c-0.26-0.29-0.57-0.43-0.95-0.43h-3.86c-0.38,0-0.69,0.14-0.95,0.43c-0.26,0.29-0.39,0.62-0.39,1v21.57c0,0.38,0.13,0.72,0.39,1
			c0.26,0.29,0.57,0.43,0.95,0.43h3.86c0.37,0,0.69-0.14,0.95-0.43C182.5,197.16,182.63,196.83,182.63,196.45z"/>
		<path class="st2" d="M212.99,167.5h1.82v9.32h-4.63c-1.59,0-2.38,0.84-2.38,2.51v23.86h-9.4v-34.97h8.56v3.37
			C208.32,168.86,210.33,167.5,212.99,167.5z"/>
	</g>
	<g>
		<g>
			<path class="st2" d="M104.4,179.07c-4.08-0.57-8.74-0.89-13.68-0.89c-5.05,0-9.81,0.33-13.96,0.92
				c-9.14,1.3-15.34,3.83-15.34,6.74h58.59C120.01,182.91,113.69,180.36,104.4,179.07z"/>
			<g>
				<circle class="st2" cx="63.47" cy="187.02" r="0.55"/>
				<circle class="st2" cx="74.75" cy="187.02" r="0.55"/>
				<circle class="st2" cx="86.04" cy="187.02" r="0.55"/>
				<circle class="st2" cx="97.32" cy="187.02" r="0.55"/>
				<circle class="st2" cx="108.6" cy="187.02" r="0.55"/>
				<circle class="st2" cx="119.88" cy="187.02" r="0.55"/>
			</g>
			<path class="st2" d="M90.58,164.46c-7.53,0-13.66,6.03-13.82,13.52c0.21-0.03,0.42-0.05,0.63-0.08c0.17-1.38,0.63-3.56,1.97-5.91
				c1.47-2.59,3.34-4.17,4.45-4.99c-0.93,1.02-2.54,3.05-3.35,6.08c-0.47,1.76-0.54,3.32-0.48,4.5c3.33-0.34,6.95-0.53,10.75-0.53
				c4.94,0,9.6,0.32,13.68,0.89C104.21,170.47,98.1,164.46,90.58,164.46z"/>
			<g>
				<path class="st2" d="M91.6,188.18l-0.48,7.36h6.56c0.73-1.07,1.49-2.4,2.15-4.03c0.48-1.2,0.82-2.33,1.06-3.33H91.6z"/>
				<path class="st2" d="M98.21,195.54h0.71c0.47-0.04,0.93-0.07,1.39-0.12c3.21-1.34,6.72-2.94,8.56-4.09
					c1.66-1.04,3.09-2.12,4.33-3.15h-10.57c-0.41,1.16-0.99,2.54-1.85,3.97C99.94,193.55,99.04,194.66,98.21,195.54z"/>
				<path class="st2" d="M81.95,191.51c0.66,1.62,1.42,2.96,2.15,4.03h6.63l-0.48-7.36h-9.12h-0.23
					C81.13,189.18,81.47,190.32,81.95,191.51z"/>
				<path class="st2" d="M115.18,188.18c-1.51,1.2-3.37,2.5-5.59,3.7c-1.81,0.98-4.93,2.28-7.95,3.42c0.94-0.1,1.86-0.21,2.75-0.33
					c9.29-1.29,15.62-3.84,15.62-6.78H115.18z"/>
				<path class="st2" d="M72.25,191.88c-2.23-1.2-4.08-2.49-5.59-3.7h-5.24c0,2.91,6.2,5.44,15.34,6.74
					c1.15,0.16,2.35,0.31,3.59,0.43C77.29,194.2,74.1,192.87,72.25,191.88z"/>
				<path class="st2" d="M72.98,191.33c1.86,1.16,5.43,2.79,8.67,4.14c0.29,0.02,0.58,0.05,0.87,0.07h1.05
					c-0.84-0.87-1.73-1.99-2.57-3.39c-0.85-1.43-1.44-2.81-1.85-3.97h-10.5C69.88,189.21,71.32,190.29,72.98,191.33z"/>
			</g>
		</g>
		<g>
			<path class="st2" d="M282.55,179.07c-4.08-0.57-8.74-0.89-13.68-0.89c-5.05,0-9.81,0.33-13.96,0.92
				c-9.14,1.3-15.34,3.83-15.34,6.74h58.59C298.17,182.91,291.84,180.36,282.55,179.07z"/>
			<g>
				<circle class="st2" cx="241.63" cy="187.02" r="0.55"/>
				<circle class="st2" cx="252.91" cy="187.02" r="0.55"/>
				<circle class="st2" cx="264.19" cy="187.02" r="0.55"/>
				<circle class="st2" cx="275.47" cy="187.02" r="0.55"/>
				<circle class="st2" cx="286.75" cy="187.02" r="0.55"/>
				<circle class="st2" cx="298.03" cy="187.02" r="0.55"/>
			</g>
			<path class="st2" d="M268.73,164.46c-7.53,0-13.66,6.03-13.82,13.52c0.21-0.03,0.42-0.05,0.63-0.08
				c0.17-1.38,0.63-3.56,1.97-5.91c1.47-2.59,3.34-4.17,4.45-4.99c-0.93,1.02-2.54,3.05-3.35,6.08c-0.47,1.76-0.54,3.32-0.48,4.5
				c3.33-0.34,6.95-0.53,10.75-0.53c4.94,0,9.6,0.32,13.68,0.89C282.37,170.47,276.26,164.46,268.73,164.46z"/>
			<g>
				<path class="st2" d="M269.76,188.18l-0.48,7.36h6.56c0.73-1.07,1.49-2.4,2.15-4.03c0.48-1.2,0.82-2.33,1.06-3.33H269.76z"/>
				<path class="st2" d="M276.36,195.54h0.71c0.47-0.04,0.93-0.07,1.39-0.12c3.21-1.34,6.72-2.94,8.56-4.09
					c1.66-1.04,3.09-2.12,4.33-3.15h-10.57c-0.41,1.16-0.99,2.54-1.85,3.97C278.1,193.55,277.2,194.66,276.36,195.54z"/>
				<path class="st2" d="M260.11,191.51c0.66,1.62,1.42,2.96,2.15,4.03h6.63l-0.48-7.36h-9.12h-0.23
					C259.28,189.18,259.62,190.32,260.11,191.51z"/>
				<path class="st2" d="M293.34,188.18c-1.51,1.2-3.37,2.5-5.59,3.7c-1.81,0.98-4.93,2.28-7.95,3.42c0.94-0.1,1.86-0.21,2.75-0.33
					c9.29-1.29,15.62-3.84,15.62-6.78H293.34z"/>
				<path class="st2" d="M250.41,191.88c-2.23-1.2-4.08-2.49-5.59-3.7h-5.24c0,2.91,6.2,5.44,15.34,6.74
					c1.15,0.16,2.35,0.31,3.59,0.43C255.44,194.2,252.25,192.87,250.41,191.88z"/>
				<path class="st2" d="M251.13,191.33c1.86,1.16,5.43,2.79,8.67,4.14c0.29,0.02,0.58,0.05,0.87,0.07h1.05
					c-0.84-0.87-1.73-1.99-2.57-3.39c-0.85-1.43-1.44-2.81-1.85-3.97h-10.5C248.04,189.21,249.48,190.29,251.13,191.33z"/>
			</g>
		</g>
	</g>
</g>
</svg>
